<mxfile host="65bd71144e">
    <diagram id="quYzMjO1wtzwmHY5NuLg" name="第 1 页">
        <mxGraphModel dx="633" dy="646" grid="1" gridSize="10" guides="1" tooltips="1" connect="1" arrows="1" fold="1" page="1" pageScale="1" pageWidth="1169" pageHeight="827" math="0" shadow="0">
            <root>
                <mxCell id="0"/>
                <mxCell id="1" parent="0"/>
                <mxCell id="2" value="&lt;font style=&quot;font-size: 20px;&quot;&gt;Duplication Detector Package&lt;/font&gt;" style="swimlane;whiteSpace=wrap;html=1;startSize=40;" vertex="1" parent="1">
                    <mxGeometry x="325" y="223" width="520" height="380" as="geometry"/>
                </mxCell>
                <mxCell id="6" value="&lt;font style=&quot;font-size: 12px;&quot;&gt;Binary Crate&lt;br&gt;&lt;/font&gt;" style="swimlane;whiteSpace=wrap;html=1;fontSize=20;" vertex="1" parent="2">
                    <mxGeometry x="20" y="60" width="480" height="120" as="geometry"/>
                </mxCell>
                <mxCell id="15" style="edgeStyle=none;html=1;exitX=0;exitY=0.75;exitDx=0;exitDy=0;entryX=1;entryY=0.75;entryDx=0;entryDy=0;fontFamily=Helvetica;fontSize=14;" edge="1" parent="6" source="4" target="3">
                    <mxGeometry relative="1" as="geometry"/>
                </mxCell>
                <mxCell id="21" value="Result" style="edgeLabel;html=1;align=center;verticalAlign=middle;resizable=0;points=[];fontSize=7;fontFamily=Helvetica;" vertex="1" connectable="0" parent="15">
                    <mxGeometry x="0.3524" y="1" relative="1" as="geometry">
                        <mxPoint x="14" as="offset"/>
                    </mxGeometry>
                </mxCell>
                <mxCell id="4" value="&lt;font style=&quot;font-size: 14px;&quot;&gt;Controller&lt;/font&gt;" style="rounded=0;whiteSpace=wrap;html=1;fontSize=20;" vertex="1" parent="6">
                    <mxGeometry x="355" y="40" width="100" height="60" as="geometry"/>
                </mxCell>
                <mxCell id="13" style="edgeStyle=none;html=1;exitX=1;exitY=0.75;exitDx=0;exitDy=0;entryX=0;entryY=0.75;entryDx=0;entryDy=0;fontFamily=Helvetica;fontSize=14;" edge="1" parent="6" source="5" target="3">
                    <mxGeometry relative="1" as="geometry"/>
                </mxCell>
                <mxCell id="19" value="&lt;font style=&quot;font-size: 7px;&quot;&gt;Config&lt;/font&gt;" style="edgeLabel;html=1;align=center;verticalAlign=middle;resizable=0;points=[];fontSize=8;fontFamily=Helvetica;" vertex="1" connectable="0" parent="13">
                    <mxGeometry x="-0.1767" relative="1" as="geometry">
                        <mxPoint x="5" as="offset"/>
                    </mxGeometry>
                </mxCell>
                <mxCell id="5" value="&lt;font style=&quot;font-size: 14px;&quot;&gt;CLI-parser&lt;/font&gt;" style="rounded=0;whiteSpace=wrap;html=1;fontSize=20;" vertex="1" parent="6">
                    <mxGeometry x="22.5" y="40" width="100" height="60" as="geometry"/>
                </mxCell>
                <mxCell id="12" style="edgeStyle=none;html=1;exitX=0;exitY=0.25;exitDx=0;exitDy=0;entryX=1;entryY=0.25;entryDx=0;entryDy=0;fontFamily=Helvetica;fontSize=14;" edge="1" parent="6" source="3" target="5">
                    <mxGeometry relative="1" as="geometry"/>
                </mxCell>
                <mxCell id="18" value="&lt;font style=&quot;font-size: 7px;&quot;&gt;ArgMatches&lt;/font&gt;" style="edgeLabel;html=1;align=center;verticalAlign=middle;resizable=0;points=[];fontSize=12;fontFamily=Helvetica;" vertex="1" connectable="0" parent="12">
                    <mxGeometry x="-0.1269" y="-1" relative="1" as="geometry">
                        <mxPoint x="-5" as="offset"/>
                    </mxGeometry>
                </mxCell>
                <mxCell id="14" style="edgeStyle=none;html=1;exitX=1;exitY=0.25;exitDx=0;exitDy=0;entryX=0;entryY=0.25;entryDx=0;entryDy=0;fontFamily=Helvetica;fontSize=14;" edge="1" parent="6" source="3" target="4">
                    <mxGeometry relative="1" as="geometry"/>
                </mxCell>
                <mxCell id="20" value="Config" style="edgeLabel;html=1;align=center;verticalAlign=middle;resizable=0;points=[];fontSize=7;fontFamily=Helvetica;" vertex="1" connectable="0" parent="14">
                    <mxGeometry x="-0.3172" relative="1" as="geometry">
                        <mxPoint x="13" as="offset"/>
                    </mxGeometry>
                </mxCell>
                <mxCell id="3" value="&lt;p style=&quot;&quot;&gt;&lt;font style=&quot;font-size: 14px;&quot;&gt;Starter&lt;/font&gt;&lt;/p&gt;" style="rounded=0;whiteSpace=wrap;html=1;fontSize=20;" vertex="1" parent="6">
                    <mxGeometry x="190" y="40" width="100" height="60" as="geometry"/>
                </mxCell>
                <mxCell id="7" value="&lt;span style=&quot;font-size: 12px;&quot;&gt;Library Crate&lt;/span&gt;" style="swimlane;whiteSpace=wrap;html=1;fontFamily=Helvetica;fontSize=20;" vertex="1" parent="2">
                    <mxGeometry x="20" y="240" width="480" height="120" as="geometry"/>
                </mxCell>
                <mxCell id="22" value="&lt;font style=&quot;font-size: 14px;&quot;&gt;Pre-processor&lt;/font&gt;" style="rounded=0;whiteSpace=wrap;html=1;fontFamily=Helvetica;fontSize=7;" vertex="1" parent="7">
                    <mxGeometry x="95" y="40" width="100" height="60" as="geometry"/>
                </mxCell>
                <mxCell id="24" value="&lt;font style=&quot;font-size: 14px;&quot;&gt;Processor&lt;/font&gt;" style="rounded=0;whiteSpace=wrap;html=1;fontFamily=Helvetica;fontSize=7;" vertex="1" parent="7">
                    <mxGeometry x="275" y="40" width="100" height="60" as="geometry"/>
                </mxCell>
                <mxCell id="29" style="edgeStyle=elbowEdgeStyle;elbow=vertical;html=1;exitX=0.25;exitY=1;exitDx=0;exitDy=0;entryX=0.25;entryY=0;entryDx=0;entryDy=0;fontFamily=Helvetica;fontSize=14;" edge="1" parent="2" source="4" target="22">
                    <mxGeometry relative="1" as="geometry">
                        <Array as="points">
                            <mxPoint x="355" y="190"/>
                            <mxPoint x="305" y="180"/>
                            <mxPoint x="405" y="190"/>
                            <mxPoint x="355" y="200"/>
                        </Array>
                    </mxGeometry>
                </mxCell>
                <mxCell id="32" value="&lt;font style=&quot;font-size: 10px;&quot;&gt;File&lt;/font&gt;" style="edgeLabel;html=1;align=center;verticalAlign=middle;resizable=0;points=[];fontSize=7;fontFamily=Helvetica;" vertex="1" connectable="0" parent="29">
                    <mxGeometry x="0.0724" y="-1" relative="1" as="geometry">
                        <mxPoint x="14" y="1" as="offset"/>
                    </mxGeometry>
                </mxCell>
                <mxCell id="28" style="edgeStyle=elbowEdgeStyle;html=1;exitX=0.75;exitY=0;exitDx=0;exitDy=0;entryX=0.398;entryY=1.003;entryDx=0;entryDy=0;fontFamily=Helvetica;fontSize=14;elbow=vertical;entryPerimeter=0;" edge="1" parent="2" source="22" target="4">
                    <mxGeometry relative="1" as="geometry">
                        <Array as="points">
                            <mxPoint x="325" y="200"/>
                            <mxPoint x="345" y="190"/>
                            <mxPoint x="405" y="200"/>
                            <mxPoint x="345" y="200"/>
                        </Array>
                    </mxGeometry>
                </mxCell>
                <mxCell id="30" value="&lt;font style=&quot;&quot;&gt;&lt;font style=&quot;font-size: 10px;&quot;&gt;String&lt;/font&gt;&lt;br&gt;&lt;/font&gt;" style="edgeLabel;html=1;align=center;verticalAlign=middle;resizable=0;points=[];fontSize=14;fontFamily=Helvetica;" vertex="1" connectable="0" parent="28">
                    <mxGeometry x="-0.156" y="1" relative="1" as="geometry">
                        <mxPoint x="25" y="1" as="offset"/>
                    </mxGeometry>
                </mxCell>
                <mxCell id="27" style="edgeStyle=elbowEdgeStyle;elbow=vertical;html=1;exitX=0.75;exitY=1;exitDx=0;exitDy=0;entryX=0.25;entryY=0;entryDx=0;entryDy=0;fontFamily=Helvetica;fontSize=14;" edge="1" parent="2" source="4" target="24">
                    <mxGeometry relative="1" as="geometry">
                        <mxPoint x="473" y="159.9999999999999" as="sourcePoint"/>
                        <mxPoint x="393" y="269.9999999999999" as="targetPoint"/>
                        <Array as="points">
                            <mxPoint x="465" y="220"/>
                            <mxPoint x="425" y="230"/>
                            <mxPoint x="445" y="220"/>
                        </Array>
                    </mxGeometry>
                </mxCell>
                <mxCell id="33" value="(String, String)" style="edgeLabel;html=1;align=center;verticalAlign=middle;resizable=0;points=[];fontSize=10;fontFamily=Helvetica;" vertex="1" connectable="0" parent="27">
                    <mxGeometry x="0.2358" relative="1" as="geometry">
                        <mxPoint x="16" as="offset"/>
                    </mxGeometry>
                </mxCell>
                <mxCell id="26" style="edgeStyle=elbowEdgeStyle;html=1;exitX=0.75;exitY=0;exitDx=0;exitDy=0;entryX=0.904;entryY=0.997;entryDx=0;entryDy=0;fontFamily=Helvetica;fontSize=14;elbow=vertical;entryPerimeter=0;" edge="1" parent="2" source="24" target="4">
                    <mxGeometry relative="1" as="geometry">
                        <mxPoint x="414" y="269.9999999999999" as="sourcePoint"/>
                        <mxPoint x="494" y="159.9999999999999" as="targetPoint"/>
                        <Array as="points">
                            <mxPoint x="435" y="230"/>
                            <mxPoint x="465" y="240"/>
                            <mxPoint x="475" y="230"/>
                        </Array>
                    </mxGeometry>
                </mxCell>
                <mxCell id="34" value="Ratio" style="edgeLabel;html=1;align=center;verticalAlign=middle;resizable=0;points=[];fontSize=10;fontFamily=Helvetica;" vertex="1" connectable="0" parent="26">
                    <mxGeometry x="0.0153" y="-1" relative="1" as="geometry">
                        <mxPoint x="-9" as="offset"/>
                    </mxGeometry>
                </mxCell>
            </root>
        </mxGraphModel>
    </diagram>
</mxfile>